<svg width="256px" height="327px" viewBox="0 0 256 327" version="1.1" xmlns="http://www.w3.org/2000/svg" xmlns:xlink="http://www.w3.org/1999/xlink">
    <g id="Page-1" stroke="none" stroke-width="1" fill="none" fill-rule="evenodd">
        <g id="icon" fill="#95BF47">
            <path d="M183.011206,42.7284234 C183.011206,42.7284234 170.757589,34.7486071 160.276168,33.5488485 C153.234784,14.8893204 141.801167,0.105795442 127.074922,0.105795442 C123.393734,0.105795442 119.787099,1.19388512 116.346697,3.37006489 C112.282347,5.88571664 108.616775,9.80715661 105.412283,14.8825726 C100.702257,13.9083704 95.3464136,14.8110299 89.8680411,17.9478469 C84.3497551,21.1110226 79.4738238,27.110456 76.5482151,34.7486071 C64.2781981,36.1835158 54.3388463,42.8153018 54.3388463,42.8153018 C54.3388463,42.8153018 26.2767053,46.0583642 26.2767053,84.2387489 C26.2767053,114.765054 42.7897864,241.151347 42.7897864,241.151347 C42.7897864,241.151347 42.9779163,249.053724 50.1540595,252.586668 C57.3302028,256.119613 105.134037,266.02925 105.134037,266.02925 C105.134037,266.02925 108.208836,266.545396 111.102095,263.790512 C113.995353,261.035629 116.204838,253.147719 116.204838,253.147719 C116.204838,253.147719 116.546913,250.079542 114.111948,247.557449 C111.676984,245.035356 108.615287,244.091122 108.615287,244.091122 L84.3701481,237.085396 C84.3701481,237.085396 80.0648141,236.307034 80.1572813,231.76127 C80.2040699,229.518306 82.077251,227.492455 85.6571144,225.861281 C95.5385915,220.678517 122.16987,219.205968 133.896445,227.726599 C136.722258,229.784875 139.0194,233.595178 141.355565,238.076598 C148.347891,250.858178 151.212495,256.192113 151.212495,256.192113 C151.212495,256.192113 152.381169,259.474248 156.349003,259.668248 C159.694084,259.828248 183.787284,254.829333 183.787284,254.829333 C183.787284,254.829333 189.815107,253.440425 191.691288,246.531597 C191.691288,246.531597 211.405525,119.165305 211.405525,90.5727242 C211.405525,60.7401155 183.011206,42.7284234 183.011206,42.7284234 Z M149.114635,68.1593064 C145.499847,67.0589393 142.286449,64.0221593 139.932384,59.6370885 C138.061934,56.3832603 136.81734,52.5048005 136.290794,48.8253524 C145.667086,50.4430284 152.811013,59.929841 152.811013,59.929841 C152.811013,59.929841 150.865897,64.2508471 149.114635,68.1593064 Z M121.299489,33.6403267 C121.299489,33.6403267 130.551282,37.2501792 134.447697,51.5147889 C126.77783,50.1370569 118.889252,46.0924183 114.005457,37.1018923 C116.992872,34.2040655 121.299489,33.6403267 121.299489,33.6403267 Z M112.793269,30.3961569 C114.267004,35.4745226 110.957787,40.9016697 110.957787,40.9016697 C110.957787,40.9016697 103.370936,37.6287848 100.619514,32.2885799 C97.8667428,26.9475686 99.5666579,20.7087231 99.5666579,20.7087231 C99.5666579,20.7087231 106.464573,24.7507123 112.793269,30.3961569 Z M96.7789284,22.9361461 C96.7789284,22.9361461 94.842957,29.4964775 102.018789,37.8992228 C91.8691557,38.9820148 80.1039427,38.2383191 75.6813568,25.6340083 C80.1789193,22.889476 86.1518883,21.6148468 90.6721217,21.9140004 C93.3960312,18.8281751 96.7789284,22.9361461 96.7789284,22.9361461 Z M63.432919,43.070201 C63.432919,43.070201 71.0865519,37.3423083 83.1146352,38.5113742 C83.1146352,38.5113742 80.3984164,42.3745041 78.1921947,47.4774037 C75.8600675,52.826738 74.0900191,60.1982216 74.0900191,60.1982216 C74.0900191,60.1982216 61.7282806,57.2479602 60.9922617,50.5438747 C60.9922617,50.5438747 60.3528948,44.6151836 63.432919,43.070201 Z" id="Shape"></path>
        </g>
    </g>
</svg>
